<svg id="visual" viewBox="0 0 900 450" width="900" height="450" xmlns="http://www.w3.org/2000/svg" xmlns:xlink="http://www.w3.org/1999/xlink" version="1.1"><path d="M0 343L21.5 337C43 331 86 319 128.8 323.3C171.7 327.7 214.3 348.3 257.2 350.5C300 352.7 343 336.3 385.8 336.3C428.7 336.3 471.3 352.7 514.2 346.3C557 340 600 311 642.8 308.3C685.7 305.7 728.3 329.3 771.2 333C814 336.7 857 320.3 878.5 312.2L900 304L900 451L878.5 451C857 451 814 451 771.2 451C728.3 451 685.7 451 642.8 451C600 451 557 451 514.2 451C471.3 451 428.7 451 385.8 451C343 451 300 451 257.2 451C214.3 451 171.7 451 128.8 451C86 451 43 451 21.5 451L0 451Z" fill="#475569" stroke-linecap="round" stroke-linejoin="miter"></path></svg>