<svg id="visual" viewBox="0 0 900 600" width="900" height="600" xmlns="http://www.w3.org/2000/svg" xmlns:xlink="http://www.w3.org/1999/xlink" version="1.1"><path d="M0 167L129 156L257 196L386 168L514 247L643 210L771 227L900 234L900 0L771 0L643 0L514 0L386 0L257 0L129 0L0 0Z" fill="#000000"></path><path d="M0 164L129 151L257 132L386 193L514 135L643 197L771 119L900 182L900 0L771 0L643 0L514 0L386 0L257 0L129 0L0 0Z" fill="#000000"></path><path d="M0 91L129 105L257 114L386 137L514 121L643 97L771 147L900 153L900 0L771 0L643 0L514 0L386 0L257 0L129 0L0 0Z" fill="#000000"></path><path d="M0 111L129 59L257 59L386 93L514 68L643 63L771 113L900 58L900 0L771 0L643 0L514 0L386 0L257 0L129 0L0 0Z" fill="#000000"></path><path d="M0 30L129 71L257 41L386 59L514 61L643 67L771 50L900 24L900 0L771 0L643 0L514 0L386 0L257 0L129 0L0 0Z" fill="#000000"></path></svg>