<svg id="visual" viewBox="0 0 960 140" width="960" height="140" xmlns="http://www.w3.org/2000/svg" xmlns:xlink="http://www.w3.org/1999/xlink" version="1.1"><rect x="0" y="0" width="960" height="140" fill="#e2e8f0"></rect><path d="M0 88L20 78.7C40 69.3 80 50.7 120 51.3C160 52 200 72 240 71.2C280 70.3 320 48.7 360 49.8C400 51 440 75 480 86.2C520 97.3 560 95.7 600 84.2C640 72.7 680 51.3 720 51.2C760 51 800 72 840 81.3C880 90.7 920 88.3 940 87.2L960 86L960 0L940 0C920 0 880 0 840 0C800 0 760 0 720 0C680 0 640 0 600 0C560 0 520 0 480 0C440 0 400 0 360 0C320 0 280 0 240 0C200 0 160 0 120 0C80 0 40 0 20 0L0 0Z" fill="#0f172a" stroke-linecap="round" stroke-linejoin="miter"></path></svg>