<svg id="visual" viewBox="0 0 900 600" width="900" height="600" xmlns="http://www.w3.org/2000/svg" xmlns:xlink="http://www.w3.org/1999/xlink" version="1.1"><path d="M0 176L21.5 173.3C43 170.7 86 165.3 128.8 169.8C171.7 174.3 214.3 188.7 257.2 186.8C300 185 343 167 385.8 146C428.7 125 471.3 101 514.2 88.8C557 76.7 600 76.3 642.8 89.3C685.7 102.3 728.3 128.7 771.2 138.3C814 148 857 141 878.5 137.5L900 134L900 0L878.5 0C857 0 814 0 771.2 0C728.3 0 685.7 0 642.8 0C600 0 557 0 514.2 0C471.3 0 428.7 0 385.8 0C343 0 300 0 257.2 0C214.3 0 171.7 0 128.8 0C86 0 43 0 21.5 0L0 0Z" fill="#1e293b" stroke-linecap="round" stroke-linejoin="miter"></path></svg>